0
SECTION
2
HEADER
9
$INSUNITS
70
4
9
$ACADVER
1
AC1014
9
$HANDSEED
5
FFFF
0
ENDSEC
0
SECTION
2
TABLES
0
TABLE
2
VPORT
5
8
100
AcDbSymbolTable
0
ENDTAB
0
TABLE
2
LTYPE
5
5
100
AcDbSymbolTable
0
LTYPE
5
14
100
AcDbSymbolTableRecord
100
AcDbLinetypeTableRecord
2
BYBLOCK
70
0
0
LTYPE
5
15
100
AcDbSymbolTableRecord
100
AcDbLinetypeTableRecord
2
BYLAYER
70
0
0
ENDTAB
0
TABLE
2
LAYER
5
2
100
AcDbSymbolTable
70
2
0
LAYER
5
50
100
AcDbSymbolTableRecord
100
AcDbLayerTableRecord
2
0
70
0
6
CONTINUOUS
0
ENDTAB
0
TABLE
2
STYLE
5
3
100
AcDbSymbolTable
70
1
0
STYLE
5
11
100
AcDbSymbolTableRecord
100
AcDbTextStyleTableRecord
2
STANDARD
70
0
0
ENDTAB
0
TABLE
2
VIEW
5
6
100
AcDbSymbolTable
70
0
0
ENDTAB
0
TABLE
2
UCS
5
7
100
AcDbSymbolTable
70
0
0
ENDTAB
0
TABLE
2
APPID
5
9
100
AcDbSymbolTable
70
2
0
APPID
5
12
100
AcDbSymbolTableRecord
100
AcDbRegAppTableRecord
2
ACAD
70
0
0
ENDTAB
0
TABLE
2
DIMSTYLE
5
A
100
AcDbSymbolTable
70
1
0
ENDTAB
0
TABLE
2
BLOCK_RECORD
5
1
100
AcDbSymbolTable
70
1
0
BLOCK_RECORD
5
1F
100
AcDbSymbolTableRecord
100
AcDbBlockTableRecord
2
*MODEL_SPACE
0
BLOCK_RECORD
5
1B
100
AcDbSymbolTableRecord
100
AcDbBlockTableRecord
2
*PAPER_SPACE
0
ENDTAB
0
ENDSEC
0
SECTION
2
BLOCKS
0
BLOCK
5
20
100
AcDbEntity
100
AcDbBlockBegin
2
*MODEL_SPACE
0
ENDBLK
5
21
100
AcDbEntity
100
AcDbBlockEnd
0
BLOCK
5
1C
100
AcDbEntity
100
AcDbBlockBegin
2
*PAPER_SPACE
0
ENDBLK
5
1D
100
AcDbEntity
100
AcDbBlockEnd
0
ENDSEC
0
SECTION
2
ENTITIES
0
LWPOLYLINE
5
100
100
AcDbEntity
8
0
100
AcDbPolyline
90
32
70
1
43
0.0
10
71.099999999999966
20
5.4000000000000004
42
-0.41421356237309243
10
69.099999999999952
20
3.4000000000000004
10
64.099999999999966
20
3.4000000000000119
42
-0.41421356237309437
10
62.099999999999973
20
5.4000000000000004
42
0.41421356237309503
10
60.099999999999973
20
7.4000000000000004
10
12.450000000000001
20
7.4000000000000012
42
-0.41421356237309503
10
7.4500000000000002
20
12.400000000000002
10
7.449999999999994
20
82.600000000000023
42
-0.41421356237309331
10
12.450000000000001
20
87.600000000000023
10
60.099999999999973
20
87.600000000000023
42
0.41421356237309503
10
62.099999999999994
20
89.600000000000009
42
-0.41421356237309503
10
64.09999999999998
20
91.599999999999994
10
69.099999999999966
20
91.600000000000023
42
-0.41421356237309503
10
71.09999999999998
20
89.600000000000009
42
0.41421356237309631
10
73.099999999999994
20
87.600000000000023
10
173.40000000000003
20
87.600000000000023
42
0.41421356237309503
10
175.40000000000006
20
89.600000000000009
42
-0.41421356237309764
10
177.40000000000003
20
91.599999999999994
10
182.40000000000003
20
91.600000000000023
42
-0.41421356237309764
10
184.40000000000001
20
89.600000000000009
42
0.41421356237309503
10
186.40000000000001
20
87.600000000000023
10
234.05000000000001
20
87.600000000000037
42
-0.41421356237308982
10
239.04999999999998
20
82.600000000000023
10
239.04999999999995
20
12.400000000000002
42
-0.41421356237309231
10
234.04999999999998
20
7.3999999999999977
10
186.40000000000001
20
7.3999999999999977
42
0.4142135623730947
10
184.40000000000001
20
5.4000000000000004
42
-0.41421356237309664
10
182.40000000000003
20
3.3999999999999995
10
177.40000000000003
20
3.3999999999999964
42
-0.41421356237309664
10
175.40000000000003
20
5.4000000000000004
42
0.4142135623730947
10
173.40000000000003
20
7.3999999999999986
10
73.099999999999966
20
7.4000000000000004
42
0.41421356237309503
0
LWPOLYLINE
5
101
100
AcDbEntity
8
0
100
AcDbPolyline
90
8
70
1
43
0.0
10
140.0625
20
63.525000000000006
10
140.0625
20
50.525000000000006
42
0.41421356237310542
10
140.56250000000003
20
50.025000000000006
10
153.5625
20
50.024999999999991
42
0.41421356237307944
10
154.06250000000003
20
50.525000000000006
10
154.0625
20
63.525000000000006
42
0.41421356237310542
10
153.5625
20
64.025000000000006
10
140.56250000000003
20
64.02500000000002
42
0.41421356237310025
0
LWPOLYLINE
5
102
100
AcDbEntity
8
0
100
AcDbPolyline
90
8
70
1
43
0.0
10
178.66250000000002
20
50.024999999999977
42
-0.4142135623730222
10
178.16249999999999
20
50.525000000000006
10
178.16249999999997
20
63.525000000000006
42
-0.41421356237312623
10
178.66250000000002
20
64.02500000000002
10
191.66250000000002
20
64.024999999999977
42
-0.41421356237307422
10
192.16250000000002
20
63.525000000000006
10
192.16250000000002
20
50.525000000000006
42
-0.41421356237313667
10
191.66250000000002
20
50.024999999999991
0
LWPOLYLINE
5
103
100
AcDbEntity
8
0
100
AcDbPolyline
90
8
70
1
43
0.0
10
219.14375000000001
20
50.024999999999977
42
-0.4142135623730222
10
218.64374999999998
20
50.525000000000006
10
218.64374999999995
20
63.525000000000006
42
-0.41421356237312623
10
219.14375000000001
20
64.02500000000002
10
232.14375000000001
20
64.024999999999977
42
-0.41421356237307422
10
232.64375000000001
20
63.525000000000006
10
232.64375000000001
20
50.525000000000006
42
-0.41421356237313667
10
232.14375000000001
20
50.024999999999991
0
LWPOLYLINE
5
104
100
AcDbEntity
8
0
100
AcDbPolyline
90
8
70
1
43
0.0
10
197.71249999999998
20
50.025000000000034
42
-0.41421356237307422
10
197.21249999999998
20
50.525000000000006
10
197.21249999999998
20
63.525000000000006
42
-0.41421356237313667
10
197.71249999999998
20
64.02500000000002
10
210.71249999999998
20
64.025000000000034
42
-0.4142135623730222
10
211.21250000000001
20
63.525000000000006
10
211.21250000000003
20
50.525000000000006
42
-0.41421356237312623
10
210.71249999999998
20
50.024999999999991
0
LWPOLYLINE
5
105
100
AcDbEntity
8
0
100
AcDbPolyline
90
8
70
1
43
0.0
10
31.024999999999999
20
11.925000000000004
42
-0.41421356237309503
10
30.525000000000002
20
12.425000000000001
10
30.525000000000002
20
25.425000000000001
42
-0.41421356237309503
10
31.024999999999999
20
25.924999999999997
10
44.024999999999999
20
25.924999999999997
42
-0.41421356237309503
10
44.524999999999999
20
25.425000000000001
10
44.524999999999991
20
12.424999999999997
42
-0.41421356237309503
10
44.024999999999999
20
11.925000000000004
0
LWPOLYLINE
5
106
100
AcDbEntity
8
0
100
AcDbPolyline
90
8
70
1
43
0.0
10
13.85625000000001
20
82.575000000000003
10
13.85625000000001
20
69.575000000000003
42
0.41421356237309503
10
14.356249999999999
20
69.075000000000003
10
29.737500000000004
20
69.075000000000003
42
0.41421356237309503
10
30.237499999999997
20
69.575000000000003
10
30.237500000000001
20
82.575000000000003
42
0.41421356237310542
10
29.737500000000008
20
83.074999999999989
10
14.356249999999999
20
83.075000000000017
42
0.41421356237309243
0
LWPOLYLINE
5
107
100
AcDbEntity
8
0
100
AcDbPolyline
90
8
70
1
43
0.0
10
57.218750000000007
20
69.075000000000003
42
-0.41421356237309503
10
56.718750000000007
20
69.575000000000003
10
56.718750000000014
20
82.575000000000003
42
-0.41421356237310542
10
57.218750000000007
20
83.075000000000017
10
72.599999999999994
20
83.075000000000017
42
-0.41421356237310542
10
73.099999999999994
20
82.575000000000003
10
73.099999999999994
20
69.575000000000003
42
-0.41421356237309503
10
72.599999999999994
20
69.075000000000003
0
LWPOLYLINE
5
108
100
AcDbEntity
8
0
100
AcDbPolyline
90
8
70
1
43
0.0
10
35.787500000000001
20
69.075000000000003
42
-0.41421356237309503
10
35.287500000000001
20
69.575000000000003
10
35.287500000000009
20
82.575000000000003
42
-0.41421356237310802
10
35.787500000000001
20
83.075000000000017
10
53.550000000000004
20
83.075000000000017
42
-0.41421356237310542
10
54.050000000000004
20
82.575000000000003
10
54.050000000000004
20
69.575000000000003
42
-0.41421356237309503
10
53.550000000000004
20
69.075000000000003
0
LWPOLYLINE
5
109
100
AcDbEntity
8
0
100
AcDbPolyline
90
8
70
1
43
0.0
10
88.174999999999983
20
11.924999999999999
42
-0.41421356237309243
10
87.674999999999983
20
12.425000000000001
10
87.674999999999983
20
25.425000000000001
42
-0.41421356237310802
10
88.174999999999983
20
25.924999999999997
10
101.175
20
25.924999999999994
42
-0.41421356237310802
10
101.67500000000001
20
25.425000000000001
10
101.67500000000001
20
12.424999999999997
42
-0.4142135623730937
10
101.175
20
11.924999999999994
0
LWPOLYLINE
5
110
100
AcDbEntity
8
0
100
AcDbPolyline
90
8
70
1
43
0.0
10
126.25
20
82.074999999999989
42
-0.41421356237310542
10
126.75
20
81.575000000000003
10
126.75
20
67.575000000000003
42
-0.41421356237310025
10
126.25
20
67.074999999999989
10
120.25
20
67.074999999999989
42
-0.41421356237310542
10
119.75000000000001
20
67.575000000000003
10
119.75
20
81.575000000000003
42
-0.4142135623730534
10
120.25
20
82.075000000000017
0
LWPOLYLINE
5
111
100
AcDbEntity
8
0
100
AcDbPolyline
90
8
70
1
43
0.0
10
216.76249999999999
20
69.075000000000031
42
-0.41421356237307422
10
216.26249999999999
20
69.575000000000003
10
216.26249999999999
20
82.575000000000003
42
-0.41421356237313667
10
216.76249999999999
20
83.075000000000017
10
232.14375000000001
20
83.075000000000017
42
-0.4142135623730534
10
232.64375000000001
20
82.575000000000003
10
232.64375000000001
20
69.575000000000003
42
-0.41421356237313145
10
232.14375000000001
20
69.075000000000003
0
LWPOLYLINE
5
112
100
AcDbEntity
8
0
100
AcDbPolyline
90
8
70
1
43
0.0
10
173.90000000000001
20
69.074999999999974
42
-0.4142135623730222
10
173.40000000000001
20
69.575000000000003
10
173.40000000000003
20
82.575000000000003
42
-0.41421356237310542
10
173.90000000000001
20
83.075000000000017
10
189.28125
20
83.075000000000031
42
-0.4142135623730222
10
189.78125000000003
20
82.575000000000003
10
189.78125000000006
20
69.575000000000003
42
-0.41421356237312101
10
189.28125
20
69.075000000000003
0
LWPOLYLINE
5
113
100
AcDbEntity
8
0
100
AcDbPolyline
90
20
70
1
43
0.0
10
90.056250000000006
20
82.074999999999989
10
82.118250000000018
20
82.074999999999989
42
0.41421356237310542
10
81.618250000000003
20
81.575000000000003
10
81.618250000000003
20
67.575000000000003
42
0.41421356237310542
10
82.118250000000018
20
67.075000000000003
10
92.880750000000006
20
67.074999999999989
42
0.41421356237307944
10
93.38075000000002
20
67.575000000000003
10
93.380750000000006
20
69.075000000000003
10
105.49425000000001
20
69.075000000000003
10
105.49424999999999
20
67.575000000000003
42
0.41421356237310542
10
105.99424999999999
20
67.075000000000003
10
116.75675
20
67.074999999999989
42
0.41421356237307944
10
117.25675000000001
20
67.575000000000003
10
117.25674999999998
20
81.575000000000003
42
0.41421356237309503
10
116.75675
20
82.074999999999989
10
111.20000000000002
20
82.074999999999989
10
111.20000000000002
20
82.575000000000003
42
0.41421356237309503
10
110.7
20
83.074999999999989
10
90.556250000000006
20
83.075000000000017
42
0.41421356237307422
10
90.056250000000006
20
82.575000000000003
0
LWPOLYLINE
5
114
100
AcDbEntity
8
0
100
AcDbPolyline
90
8
70
1
43
0.0
10
192.95000000000002
20
69.074999999999974
42
-0.4142135623730222
10
192.45000000000002
20
69.575000000000003
10
192.45000000000005
20
82.575000000000003
42
-0.41421356237310542
10
192.95000000000002
20
83.075000000000017
10
210.71249999999998
20
83.075000000000031
42
-0.4142135623730222
10
211.21250000000001
20
82.575000000000003
10
211.21250000000003
20
69.575000000000003
42
-0.41421356237312101
10
210.71249999999998
20
69.075000000000003
0
LWPOLYLINE
5
115
100
AcDbEntity
8
0
100
AcDbPolyline
90
20
70
1
43
0.0
10
137.68124999999998
20
82.575000000000003
10
137.68124999999998
20
82.074999999999989
10
129.74324999999999
20
82.075000000000017
42
0.41421356237307422
10
129.24324999999999
20
81.575000000000003
10
129.24324999999999
20
67.575000000000003
42
0.41421356237310542
10
129.74324999999999
20
67.075000000000003
10
142.88700000000003
20
67.074999999999989
42
0.41421356237310025
10
143.38700000000003
20
67.575000000000003
10
143.387
20
69.075000000000003
10
153.11924999999999
20
69.075000000000003
10
153.11925000000002
20
67.575000000000003
42
0.41421356237310542
10
153.61925000000002
20
67.075000000000003
10
166.76300000000001
20
67.074999999999989
42
0.41421356237313667
10
167.26300000000003
20
67.575000000000003
10
167.26300000000003
20
81.575000000000003
42
0.41421356237307422
10
166.76300000000001
20
82.074999999999989
10
158.82499999999999
20
82.074999999999989
10
158.82499999999999
20
82.575000000000003
42
0.41421356237309503
10
158.32499999999999
20
83.074999999999989
10
138.18124999999998
20
83.075000000000017
42
0.41421356237309503
0
LWPOLYLINE
5
116
100
AcDbEntity
8
0
100
AcDbPolyline
90
8
70
1
43
0.0
10
121.51250000000002
20
50.025000000000013
42
-0.41421356237310542
10
121.0125
20
50.525000000000006
10
121.0125
20
63.525000000000006
42
-0.41421356237310025
10
121.51250000000002
20
64.02500000000002
10
134.51249999999999
20
64.02500000000002
42
-0.41421356237310542
10
135.01249999999999
20
63.525000000000006
10
135.01249999999999
20
50.525000000000006
42
-0.41421356237307944
10
134.51249999999999
20
50.024999999999991
0
LWPOLYLINE
5
117
100
AcDbEntity
8
0
100
AcDbPolyline
90
8
70
1
43
0.0
10
64.362500000000011
20
50.025000000000006
42
-0.41421356237310542
10
63.862500000000011
20
50.525000000000006
10
63.862500000000011
20
63.525000000000006
42
-0.41421356237310542
10
64.362500000000011
20
64.025000000000006
10
77.362499999999997
20
64.025000000000006
42
-0.41421356237310542
10
77.862499999999997
20
63.525000000000006
10
77.862499999999997
20
50.525000000000006
42
-0.41421356237310542
10
77.362499999999997
20
50.025000000000006
0
LWPOLYLINE
5
118
100
AcDbEntity
8
0
100
AcDbPolyline
90
8
70
1
43
0.0
10
101.96249999999999
20
63.525000000000006
10
101.96249999999999
20
50.525000000000006
42
0.41421356237310542
10
102.46250000000001
20
50.025000000000006
10
115.46250000000001
20
50.024999999999991
42
0.41421356237310025
10
115.96250000000001
20
50.525000000000006
10
115.96250000000001
20
63.525000000000006
42
0.41421356237310542
10
115.46250000000001
20
64.025000000000006
10
102.46250000000001
20
64.02500000000002
42
0.41421356237310025
0
LWPOLYLINE
5
119
100
AcDbEntity
8
0
100
AcDbPolyline
90
8
70
1
43
0.0
10
19.118749999999999
20
50.025000000000013
42
-0.41421356237309764
10
18.618750000000002
20
50.525000000000006
10
18.618749999999999
20
63.525000000000006
42
-0.41421356237309631
10
19.118749999999999
20
64.025000000000006
10
32.118749999999991
20
64.025000000000006
42
-0.41421356237310281
10
32.618749999999999
20
63.525000000000006
10
32.618750000000006
20
50.525000000000006
42
-0.41421356237309764
10
32.118749999999999
20
50.025000000000006
0
LWPOLYLINE
5
120
100
AcDbEntity
8
0
100
AcDbPolyline
90
8
70
1
43
0.0
10
83.412500000000009
20
50.024999999999991
42
-0.41421356237310542
10
82.912500000000023
20
50.525000000000006
10
82.912500000000023
20
63.525000000000006
42
-0.41421356237310542
10
83.412500000000009
20
64.025000000000006
10
96.412500000000009
20
64.02500000000002
42
-0.41421356237310542
10
96.912499999999994
20
63.525000000000006
10
96.912499999999994
20
50.525000000000006
42
-0.41421356237307944
10
96.412500000000009
20
50.024999999999991
0
LWPOLYLINE
5
121
100
AcDbEntity
8
0
100
AcDbPolyline
90
8
70
1
43
0.0
10
45.3125
20
50.025000000000006
42
-0.41421356237310542
10
44.8125
20
50.525000000000006
10
44.8125
20
63.525000000000006
42
-0.41421356237310542
10
45.3125
20
64.025000000000006
10
58.312500000000007
20
64.025000000000006
42
-0.41421356237310542
10
58.812500000000007
20
63.525000000000006
10
58.812500000000007
20
50.525000000000006
42
-0.41421356237310542
10
58.312500000000007
20
50.025000000000006
0
LWPOLYLINE
5
122
100
AcDbEntity
8
0
100
AcDbPolyline
90
8
70
1
43
0.0
10
159.61250000000001
20
50.025000000000013
42
-0.41421356237310542
10
159.11249999999998
20
50.525000000000006
10
159.11249999999998
20
63.525000000000006
42
-0.41421356237310025
10
159.61250000000001
20
64.02500000000002
10
172.61250000000001
20
64.024999999999977
42
-0.41421356237307422
10
173.11250000000001
20
63.525000000000006
10
173.11250000000001
20
50.525000000000006
42
-0.41421356237313667
10
172.61250000000001
20
50.024999999999991
0
LWPOLYLINE
5
123
100
AcDbEntity
8
0
100
AcDbPolyline
90
8
70
1
43
0.0
10
111.98750000000001
20
30.975000000000009
42
-0.41421356237310542
10
111.4875
20
31.475000000000001
10
111.4875
20
44.475000000000009
42
-0.41421356237309503
10
111.98750000000001
20
44.975000000000016
10
124.98749999999998
20
44.975000000000009
42
-0.41421356237310025
10
125.48749999999998
20
44.475000000000009
10
125.4875
20
31.475000000000001
42
-0.41421356237307161
10
124.9875
20
30.974999999999994
0
LWPOLYLINE
5
124
100
AcDbEntity
8
0
100
AcDbPolyline
90
8
70
1
43
0.0
10
182.63750000000002
20
31.475000000000001
42
-0.41421356237313145
10
182.13750000000002
20
30.974999999999994
10
169.13749999999999
20
30.975000000000005
42
-0.41421356237304563
10
168.63749999999999
20
31.475000000000001
10
168.63749999999996
20
44.475000000000009
42
-0.41421356237312101
10
169.13749999999999
20
44.975000000000016
10
182.13750000000002
20
44.97499999999998
42
-0.41421356237307422
10
182.63750000000002
20
44.475000000000009
0
LWPOLYLINE
5
125
100
AcDbEntity
8
0
100
AcDbPolyline
90
8
70
1
43
0.0
10
187.6875
20
44.475000000000009
10
187.6875
20
31.475000000000001
42
0.41421356237304563
10
188.1875
20
30.975000000000001
10
201.18750000000003
20
30.974999999999994
42
0.41421356237313145
10
201.68750000000003
20
31.475000000000001
10
201.68750000000003
20
44.475000000000009
42
0.41421356237307422
10
201.18750000000003
20
44.975000000000009
10
188.1875
20
44.975000000000016
42
0.41421356237312101
0
LWPOLYLINE
5
126
100
AcDbEntity
8
0
100
AcDbPolyline
90
8
70
1
43
0.0
10
92.9375
20
30.975000000000009
42
-0.41421356237310542
10
92.437499999999986
20
31.475000000000001
10
92.437499999999986
20
44.475000000000009
42
-0.41421356237309503
10
92.9375
20
44.975000000000016
10
105.9375
20
44.975000000000009
42
-0.41421356237308982
10
106.4375
20
44.475000000000009
10
106.4375
20
31.475000000000001
42
-0.41421356237309243
10
105.9375
20
30.974999999999994
0
LWPOLYLINE
5
127
100
AcDbEntity
8
0
100
AcDbPolyline
90
8
70
1
43
0.0
10
149.58749999999998
20
44.475000000000009
10
149.58749999999998
20
31.475000000000001
42
0.41421356237310542
10
150.08749999999998
20
30.975000000000001
10
163.08750000000001
20
30.974999999999994
42
0.41421356237313145
10
163.58750000000001
20
31.475000000000001
10
163.58750000000001
20
44.475000000000009
42
0.41421356237307422
10
163.08750000000001
20
44.975000000000009
10
150.08749999999998
20
44.975000000000016
42
0.41421356237309503
0
LWPOLYLINE
5
128
100
AcDbEntity
8
0
100
AcDbPolyline
90
8
70
1
43
0.0
10
214.38125000000002
20
30.975000000000023
42
-0.41421356237307683
10
213.88125000000002
20
31.475000000000001
10
213.88125000000002
20
44.475000000000009
42
-0.41421356237313145
10
214.38125000000002
20
44.975000000000016
10
227.38124999999999
20
44.97499999999998
42
-0.41421356237307422
10
227.88125000000002
20
44.475000000000009
10
227.88125000000002
20
31.475000000000001
42
-0.41421356237313145
10
227.38124999999999
20
30.974999999999994
0
LWPOLYLINE
5
129
100
AcDbEntity
8
0
100
AcDbPolyline
90
8
70
1
43
0.0
10
131.03750000000002
20
30.975000000000009
42
-0.41421356237310542
10
130.53750000000002
20
31.475000000000001
10
130.53750000000002
20
44.475000000000009
42
-0.41421356237309503
10
131.03750000000002
20
44.975000000000016
10
144.03749999999999
20
44.975000000000009
42
-0.41421356237310025
10
144.53749999999999
20
44.475000000000009
10
144.53750000000002
20
31.475000000000001
42
-0.41421356237307161
10
144.03749999999999
20
30.974999999999994
0
LWPOLYLINE
5
130
100
AcDbEntity
8
0
100
AcDbPolyline
90
8
70
1
43
0.0
10
73.887500000000003
20
30.974999999999998
42
-0.41421356237309764
10
73.387500000000003
20
31.475000000000001
10
73.387500000000003
20
44.475000000000009
42
-0.41421356237309503
10
73.887500000000003
20
44.975000000000009
10
86.887499999999989
20
44.975000000000009
42
-0.41421356237310025
10
87.387499999999989
20
44.475000000000009
10
87.387499999999989
20
31.475000000000001
42
-0.41421356237310025
10
86.887500000000003
20
30.975000000000001
0
LWPOLYLINE
5
131
100
AcDbEntity
8
0
100
AcDbPolyline
90
8
70
1
43
0.0
10
35.287500000000009
20
44.475000000000009
10
35.287500000000009
20
31.475000000000001
42
0.41421356237309243
10
35.787499999999994
20
30.975000000000001
10
48.787500000000001
20
30.974999999999998
42
0.41421356237308204
10
49.287500000000009
20
31.475000000000001
10
49.287500000000001
20
44.475000000000009
42
0.41421356237309503
10
48.787500000000001
20
44.975000000000009
10
35.787500000000001
20
44.975000000000009
42
0.41421356237309503
0
LWPOLYLINE
5
132
100
AcDbEntity
8
0
100
AcDbPolyline
90
8
70
1
43
0.0
10
164.37500000000003
20
11.925000000000027
42
-0.41421356237307555
10
163.87500000000003
20
12.425000000000001
10
163.87500000000003
20
25.425000000000001
42
-0.41421356237313406
10
164.37500000000003
20
25.925000000000008
10
177.375
20
25.924999999999979
42
-0.41421356237307944
10
177.875
20
25.425000000000001
10
177.875
20
12.424999999999997
42
-0.41421356237313145
10
177.375
20
11.924999999999994
0
LWPOLYLINE
5
133
100
AcDbEntity
8
0
100
AcDbPolyline
90
8
70
1
43
0.0
10
202.47500000000002
20
11.924999999999974
42
-0.41421356237302348
10
201.97500000000002
20
12.425000000000001
10
201.97500000000002
20
25.425000000000001
42
-0.41421356237310281
10
202.47500000000002
20
25.925000000000008
10
215.47500000000002
20
25.924999999999979
42
-0.41421356237307944
10
215.97500000000002
20
25.425000000000001
10
215.97500000000002
20
12.424999999999997
42
-0.41421356237313145
10
215.47500000000002
20
11.924999999999994
0
LWPOLYLINE
5
134
100
AcDbEntity
8
0
100
AcDbPolyline
90
8
70
1
43
0.0
10
14.356249999999999
20
30.975000000000001
42
-0.41421356237309631
10
13.856250000000001
20
31.475000000000001
10
13.856250000000003
20
44.475000000000009
42
-0.4142135623730937
10
14.356249999999999
20
44.975000000000009
10
27.356250000000006
20
44.975000000000009
42
-0.41421356237309243
10
27.856249999999999
20
44.475000000000009
10
27.856250000000003
20
31.475000000000001
42
-0.41421356237309764
10
27.356250000000003
20
30.975000000000001
0
LWPOLYLINE
5
135
100
AcDbEntity
8
0
100
AcDbPolyline
90
8
70
1
43
0.0
10
221.02499999999998
20
25.425000000000001
10
221.02499999999998
20
12.424999999999997
42
0.41421356237307294
10
221.52500000000001
20
11.924999999999999
10
234.52500000000001
20
11.924999999999994
42
0.41421356237312101
10
235.02500000000001
20
12.424999999999997
10
235.02500000000001
20
25.425000000000001
42
0.41421356237302737
10
234.52500000000001
20
25.925000000000004
10
221.52500000000001
20
25.925000000000008
42
0.41421356237313406
0
CIRCLE
5
136
100
AcDbEntity
8
0
100
AcDbCircle
10
179.90000000000003
20
88.800000000000026
30
0
40
1.6000000000000014
210
0
220
0
230
1
0
CIRCLE
5
137
100
AcDbEntity
8
0
100
AcDbCircle
10
66.599999999999966
20
88.800000000000011
30
0
40
1.5999999999999925
210
0
220
0
230
1
0
CIRCLE
5
138
100
AcDbEntity
8
0
100
AcDbCircle
10
66.599999999999966
20
6.1999999999999993
30
0
40
1.5999999999999925
210
0
220
0
230
1
0
LWPOLYLINE
5
139
100
AcDbEntity
8
0
100
AcDbPolyline
90
8
70
1
43
0.0
10
183.42500000000001
20
11.924999999999974
42
-0.41421356237302348
10
182.92500000000001
20
12.425000000000001
10
182.92500000000001
20
25.425000000000001
42
-0.41421356237310281
10
183.42500000000001
20
25.925000000000008
10
196.42499999999998
20
25.925000000000033
42
-0.41421356237302737
10
196.92499999999998
20
25.425000000000001
10
196.92500000000001
20
12.424999999999997
42
-0.41421356237312101
10
196.42499999999998
20
11.924999999999994
0
LWPOLYLINE
5
140
100
AcDbEntity
8
0
100
AcDbPolyline
90
8
70
1
43
0.0
10
54.837500000000006
20
30.974999999999998
42
-0.41421356237309764
10
54.337500000000006
20
31.475000000000001
10
54.337500000000006
20
44.475000000000009
42
-0.41421356237309503
10
54.837500000000006
20
44.975000000000009
10
67.837500000000006
20
44.975000000000009
42
-0.41421356237309503
10
68.337500000000006
20
44.475000000000009
10
68.337500000000006
20
31.475000000000001
42
-0.41421356237309764
10
67.837500000000006
20
30.975000000000001
0
CIRCLE
5
141
100
AcDbEntity
8
0
100
AcDbCircle
10
179.90000000000003
20
6.1999999999999922
30
0
40
1.6000000000000014
210
0
220
0
230
1
0
LWPOLYLINE
5
142
100
AcDbEntity
8
0
100
AcDbPolyline
90
8
70
1
43
0.0
10
145.32500000000002
20
11.924999999999999
42
-0.41421356237307161
10
144.82499999999999
20
12.425000000000001
10
144.82499999999999
20
25.425000000000001
42
-0.41421356237307422
10
145.32500000000002
20
25.925000000000008
10
158.32499999999999
20
25.924999999999994
42
-0.41421356237310802
10
158.82499999999999
20
25.425000000000001
10
158.82499999999999
20
12.424999999999997
42
-0.4142135623730937
10
158.32499999999999
20
11.924999999999994
0
LWPOLYLINE
5
143
100
AcDbEntity
8
0
100
AcDbPolyline
90
8
70
1
43
0.0
10
50.075000000000003
20
11.925000000000001
42
-0.41421356237309631
10
49.575000000000003
20
12.425000000000001
10
49.575000000000017
20
25.425000000000001
42
-0.41421356237309764
10
50.075000000000003
20
25.924999999999997
10
63.07500000000001
20
25.924999999999997
42
-0.41421356237309503
10
63.57500000000001
20
25.425000000000001
10
63.575000000000003
20
12.424999999999997
42
-0.41421356237309503
10
63.07500000000001
20
11.925000000000004
0
LWPOLYLINE
5
144
100
AcDbEntity
8
0
100
AcDbPolyline
90
8
70
1
43
0.0
10
126.27500000000001
20
11.924999999999999
42
-0.41421356237309243
10
125.77500000000001
20
12.425000000000001
10
125.77500000000001
20
25.425000000000001
42
-0.41421356237309503
10
126.27500000000001
20
25.925000000000008
10
139.27499999999998
20
25.924999999999994
42
-0.41421356237310802
10
139.77499999999998
20
25.425000000000001
10
139.77499999999998
20
12.424999999999997
42
-0.4142135623730937
10
139.27499999999998
20
11.924999999999994
0
LWPOLYLINE
5
145
100
AcDbEntity
8
0
100
AcDbPolyline
90
8
70
1
43
0.0
10
107.22499999999999
20
11.924999999999999
42
-0.41421356237309243
10
106.72499999999999
20
12.425000000000001
10
106.72499999999999
20
25.425000000000001
42
-0.41421356237309503
10
107.22499999999999
20
25.925000000000008
10
120.22500000000001
20
25.924999999999994
42
-0.41421356237310802
10
120.72500000000002
20
25.425000000000001
10
120.72500000000002
20
12.424999999999997
42
-0.4142135623730937
10
120.22500000000001
20
11.924999999999994
0
LWPOLYLINE
5
146
100
AcDbEntity
8
0
100
AcDbPolyline
90
8
70
1
43
0.0
10
69.125
20
11.925000000000001
42
-0.41421356237309631
10
68.625
20
12.425000000000001
10
68.625
20
25.425000000000001
42
-0.41421356237309764
10
69.125
20
25.924999999999997
10
82.125
20
25.925000000000011
42
-0.41421356237307683
10
82.625000000000014
20
25.425000000000001
10
82.624999999999972
20
12.424999999999997
42
-0.4142135623730846
10
82.125
20
11.925000000000004
0
LWPOLYLINE
5
147
100
AcDbEntity
8
0
100
AcDbPolyline
90
8
70
1
43
0.0
10
11.975
20
11.925000000000004
42
-0.41421356237309115
10
11.475
20
12.425000000000001
10
11.474999999999998
20
25.425000000000001
42
-0.41421356237309243
10
11.975
20
25.924999999999997
10
24.975000000000005
20
25.925000000000004
42
-0.41421356237308204
10
25.475000000000001
20
25.425000000000001
10
25.475000000000001
20
12.424999999999997
42
-0.41421356237308982
10
24.975000000000001
20
11.925000000000001
0
ENDSEC
0
SECTION
2
OBJECTS
0
DICTIONARY
5
C
100
AcDbDictionary
3
ACAD_GROUP
350
D
3
ACAD_MLINESTYLE
350
17
0
DICTIONARY
5
D
100
AcDbDictionary
0
DICTIONARY
5
1A
330
C
100
AcDbDictionary
0
DICTIONARY
5
17
100
AcDbDictionary
0
ENDSEC
0
EOF
