%TF.GenerationSoftware,KiCad,Pcbnew,(6.0.1)*%
%TF.CreationDate,2022-06-07T22:41:37+02:00*%
%TF.ProjectId,dizzy40,64697a7a-7934-4302-9e6b-696361645f70,rev?*%
%TF.SameCoordinates,Original*%
%TF.FileFunction,Paste,Bot*%
%TF.FilePolarity,Positive*%
%FSLAX46Y46*%
G04 Gerber Fmt 4.6, Leading zero omitted, Abs format (unit mm)*
G04 Created by KiCad (PCBNEW (6.0.1)) date 2022-06-07 22:41:37*
%MOMM*%
%LPD*%
G01*
G04 APERTURE LIST*
G04 Aperture macros list*
%AMRoundRect*
0 Rectangle with rounded corners*
0 $1 Rounding radius*
0 $2 $3 $4 $5 $6 $7 $8 $9 X,Y pos of 4 corners*
0 Add a 4 corners polygon primitive as box body*
4,1,4,$2,$3,$4,$5,$6,$7,$8,$9,$2,$3,0*
0 Add four circle primitives for the rounded corners*
1,1,$1+$1,$2,$3*
1,1,$1+$1,$4,$5*
1,1,$1+$1,$6,$7*
1,1,$1+$1,$8,$9*
0 Add four rect primitives between the rounded corners*
20,1,$1+$1,$2,$3,$4,$5,0*
20,1,$1+$1,$4,$5,$6,$7,0*
20,1,$1+$1,$6,$7,$8,$9,0*
20,1,$1+$1,$8,$9,$2,$3,0*%
G04 Aperture macros list end*
%ADD10RoundRect,0.250000X-0.250000X-0.475000X0.250000X-0.475000X0.250000X0.475000X-0.250000X0.475000X0*%
%ADD11RoundRect,0.250000X-0.262500X-0.450000X0.262500X-0.450000X0.262500X0.450000X-0.262500X0.450000X0*%
%ADD12R,1.600000X0.550000*%
%ADD13R,0.550000X1.600000*%
%ADD14R,0.800000X0.900000*%
%ADD15R,0.700000X0.700000*%
%ADD16RoundRect,0.250000X0.450000X-0.262500X0.450000X0.262500X-0.450000X0.262500X-0.450000X-0.262500X0*%
%ADD17RoundRect,0.150000X0.512500X0.150000X-0.512500X0.150000X-0.512500X-0.150000X0.512500X-0.150000X0*%
%ADD18R,1.200000X1.400000*%
%ADD19RoundRect,0.250000X-0.475000X0.250000X-0.475000X-0.250000X0.475000X-0.250000X0.475000X0.250000X0*%
%ADD20RoundRect,0.250000X0.375000X0.625000X-0.375000X0.625000X-0.375000X-0.625000X0.375000X-0.625000X0*%
%ADD21RoundRect,0.250000X-0.450000X0.262500X-0.450000X-0.262500X0.450000X-0.262500X0.450000X0.262500X0*%
%ADD22RoundRect,0.250000X0.250000X0.475000X-0.250000X0.475000X-0.250000X-0.475000X0.250000X-0.475000X0*%
%ADD23RoundRect,0.250000X0.262500X0.450000X-0.262500X0.450000X-0.262500X-0.450000X0.262500X-0.450000X0*%
%ADD24R,0.600000X1.450000*%
%ADD25R,0.300000X1.450000*%
G04 APERTURE END LIST*
D10*
%TO.C,C2*%
X150080186Y-101825932D03*
X151980186Y-101825932D03*
%TD*%
D11*
%TO.C,R1*%
X136755500Y-61214000D03*
X138580500Y-61214000D03*
%TD*%
D12*
%TO.C,U1*%
X147099292Y-95802800D03*
X147099292Y-96602800D03*
X147099292Y-97402800D03*
X147099292Y-98202800D03*
X147099292Y-99002800D03*
X147099292Y-99802800D03*
X147099292Y-100602800D03*
X147099292Y-101402800D03*
D13*
X145649292Y-102852800D03*
X144849292Y-102852800D03*
X144049292Y-102852800D03*
X143249292Y-102852800D03*
X142449292Y-102852800D03*
X141649292Y-102852800D03*
X140849292Y-102852800D03*
X140049292Y-102852800D03*
D12*
X138599292Y-101402800D03*
X138599292Y-100602800D03*
X138599292Y-99802800D03*
X138599292Y-99002800D03*
X138599292Y-98202800D03*
X138599292Y-97402800D03*
X138599292Y-96602800D03*
X138599292Y-95802800D03*
D13*
X140049292Y-94352800D03*
X140849292Y-94352800D03*
X141649292Y-94352800D03*
X142449292Y-94352800D03*
X143249292Y-94352800D03*
X144049292Y-94352800D03*
X144849292Y-94352800D03*
X145649292Y-94352800D03*
%TD*%
D14*
%TO.C,D6*%
X223774000Y-73517000D03*
X222824000Y-71517000D03*
X224724000Y-71517000D03*
%TD*%
D15*
%TO.C,RGB3*%
X123597000Y-79925000D03*
X121767000Y-79925000D03*
X121767000Y-78825000D03*
X123597000Y-78825000D03*
%TD*%
D14*
%TO.C,D19*%
X57150000Y-130794000D03*
X56200000Y-128794000D03*
X58100000Y-128794000D03*
%TD*%
%TO.C,D2*%
X90551000Y-73517000D03*
X89601000Y-71517000D03*
X91501000Y-71517000D03*
%TD*%
D10*
%TO.C,C3*%
X150134069Y-93007319D03*
X152034069Y-93007319D03*
%TD*%
D14*
%TO.C,D18*%
X219075000Y-111871000D03*
X218125000Y-109871000D03*
X220025000Y-109871000D03*
%TD*%
%TO.C,D11*%
X190500000Y-92821000D03*
X189550000Y-90821000D03*
X191450000Y-90821000D03*
%TD*%
%TO.C,D1*%
X52425600Y-73491600D03*
X51475600Y-71491600D03*
X53375600Y-71491600D03*
%TD*%
D16*
%TO.C,R5*%
X144119600Y-107643300D03*
X144119600Y-105818300D03*
%TD*%
D14*
%TO.C,D9*%
X114300000Y-92821000D03*
X113350000Y-90821000D03*
X115250000Y-90821000D03*
%TD*%
%TO.C,D23*%
X215646000Y-130794000D03*
X214696000Y-128794000D03*
X216596000Y-128794000D03*
%TD*%
%TO.C,D14*%
X64008000Y-111871000D03*
X63058000Y-109871000D03*
X64958000Y-109871000D03*
%TD*%
D15*
%TO.C,RGB7*%
X173329000Y-115782000D03*
X175159000Y-115782000D03*
X175159000Y-116882000D03*
X173329000Y-116882000D03*
%TD*%
%TO.C,RGB6*%
X123037000Y-115782000D03*
X124867000Y-115782000D03*
X124867000Y-116882000D03*
X123037000Y-116882000D03*
%TD*%
D14*
%TO.C,D15*%
X104775000Y-111871000D03*
X103825000Y-109871000D03*
X105725000Y-109871000D03*
%TD*%
%TO.C,D10*%
X171450000Y-92846400D03*
X170500000Y-90846400D03*
X172400000Y-90846400D03*
%TD*%
D17*
%TO.C,U2*%
X148762300Y-68747600D03*
X148762300Y-69697600D03*
X148762300Y-70647600D03*
X146487300Y-70647600D03*
X146487300Y-69697600D03*
X146487300Y-68747600D03*
%TD*%
D15*
%TO.C,RGB1*%
X237389000Y-79925000D03*
X235559000Y-79925000D03*
X235559000Y-78825000D03*
X237389000Y-78825000D03*
%TD*%
D14*
%TO.C,D24*%
X238125000Y-130794000D03*
X237175000Y-128794000D03*
X239075000Y-128794000D03*
%TD*%
%TO.C,D8*%
X76200000Y-92821000D03*
X75250000Y-90821000D03*
X77150000Y-90821000D03*
%TD*%
D18*
%TO.C,X1*%
X151904004Y-95207644D03*
X151904004Y-97407644D03*
X150204004Y-97407644D03*
X150204004Y-95207644D03*
%TD*%
D15*
%TO.C,RGB4*%
X59970000Y-79925000D03*
X58140000Y-79925000D03*
X58140000Y-78825000D03*
X59970000Y-78825000D03*
%TD*%
D19*
%TO.C,C4*%
X154076400Y-95417600D03*
X154076400Y-97317600D03*
%TD*%
D14*
%TO.C,D17*%
X180975000Y-111871000D03*
X180025000Y-109871000D03*
X181925000Y-109871000D03*
%TD*%
D15*
%TO.C,RGB8*%
X235559000Y-116925000D03*
X237389000Y-116925000D03*
X237389000Y-118025000D03*
X235559000Y-118025000D03*
%TD*%
D14*
%TO.C,D16*%
X161925000Y-111871000D03*
X160975000Y-109871000D03*
X162875000Y-109871000D03*
%TD*%
%TO.C,D3*%
X128574800Y-73542400D03*
X127624800Y-71542400D03*
X129524800Y-71542400D03*
%TD*%
D16*
%TO.C,R6*%
X40640000Y-99362900D03*
X40640000Y-97537900D03*
%TD*%
D15*
%TO.C,RGB2*%
X179985000Y-79925000D03*
X178155000Y-79925000D03*
X178155000Y-78825000D03*
X179985000Y-78825000D03*
%TD*%
D20*
%TO.C,F1*%
X149024800Y-73507600D03*
X146224800Y-73507600D03*
%TD*%
D14*
%TO.C,D12*%
X232511600Y-92846400D03*
X231561600Y-90846400D03*
X233461600Y-90846400D03*
%TD*%
D21*
%TO.C,R3*%
X151333200Y-81129500D03*
X151333200Y-82954500D03*
%TD*%
D22*
%TO.C,C6*%
X139634000Y-91694000D03*
X137734000Y-91694000D03*
%TD*%
D10*
%TO.C,C5*%
X150116108Y-99634747D03*
X152016108Y-99634747D03*
%TD*%
%TO.C,C1*%
X155310800Y-82042000D03*
X157210800Y-82042000D03*
%TD*%
D21*
%TO.C,R4*%
X153466800Y-81129500D03*
X153466800Y-82954500D03*
%TD*%
D14*
%TO.C,D20*%
X80010000Y-130794000D03*
X79060000Y-128794000D03*
X80960000Y-128794000D03*
%TD*%
D23*
%TO.C,R2*%
X158189300Y-61214000D03*
X156364300Y-61214000D03*
%TD*%
D15*
%TO.C,RGB5*%
X58140000Y-116925000D03*
X59970000Y-116925000D03*
X59970000Y-118025000D03*
X58140000Y-118025000D03*
%TD*%
D14*
%TO.C,D4*%
X166725600Y-73542400D03*
X165775600Y-71542400D03*
X167675600Y-71542400D03*
%TD*%
%TO.C,D5*%
X204774800Y-73517000D03*
X203824800Y-71517000D03*
X205724800Y-71517000D03*
%TD*%
D24*
%TO.C,USB1*%
X144425600Y-63684200D03*
X145225600Y-63684200D03*
D25*
X146425600Y-63684200D03*
X147425600Y-63684200D03*
X147925600Y-63684200D03*
X148925600Y-63684200D03*
D24*
X150125600Y-63684200D03*
X150925600Y-63684200D03*
X150925600Y-63684200D03*
X150125600Y-63684200D03*
D25*
X149425600Y-63684200D03*
X148425600Y-63684200D03*
X146925600Y-63684200D03*
X145925600Y-63684200D03*
D24*
X145225600Y-63684200D03*
X144425600Y-63684200D03*
%TD*%
D14*
%TO.C,D22*%
X152400000Y-130794000D03*
X151450000Y-128794000D03*
X153350000Y-128794000D03*
%TD*%
%TO.C,D25*%
X242951000Y-73491600D03*
X242001000Y-71491600D03*
X243901000Y-71491600D03*
%TD*%
M02*
