M48
; DRILL file {KiCad (6.0.1)} date Mon Jun  6 15:09:26 2022
; FORMAT={-:-/ absolute / metric / decimal}
; #@! TF.CreationDate,2022-06-06T15:09:26+02:00
; #@! TF.GenerationSoftware,Kicad,Pcbnew,(6.0.1)
; #@! TF.FileFunction,NonPlated,1,2,NPTH
FMAT,2
METRIC
; #@! TA.AperFunction,NonPlated,NPTH,ComponentDrill
T1C0.650
; #@! TA.AperFunction,NonPlated,NPTH,ComponentDrill
T2C1.750
; #@! TA.AperFunction,NonPlated,NPTH,ComponentDrill
T3C3.048
; #@! TA.AperFunction,NonPlated,NPTH,ComponentDrill
T4C3.988
%
G90
G05
T1
X144.786Y-62.239
X150.566Y-62.239
T2
X37.782Y-69.85
X40.164Y-88.9
X40.164Y-127.0
X42.545Y-127.0
X44.926Y-107.95
X47.942Y-69.85
X50.324Y-88.9
X50.324Y-127.0
X52.705Y-127.0
X55.086Y-107.95
X56.832Y-69.85
X61.595Y-88.9
X61.595Y-127.0
X63.976Y-127.0
X66.358Y-127.0
X66.992Y-69.85
X71.12Y-107.95
X71.755Y-88.9
X71.755Y-127.0
X74.136Y-127.0
X75.882Y-69.85
X76.517Y-127.0
X80.645Y-88.9
X81.28Y-107.95
X83.026Y-127.0
X85.407Y-127.0
X86.042Y-69.85
X90.17Y-107.95
X90.805Y-88.9
X93.186Y-127.0
X94.932Y-69.85
X95.567Y-127.0
X99.695Y-88.9
X100.33Y-107.95
X105.093Y-69.85
X109.22Y-107.95
X109.855Y-88.9
X113.983Y-69.85
X116.364Y-127.0
X118.745Y-88.9
X119.38Y-107.95
X121.126Y-127.0
X123.507Y-127.0
X124.142Y-69.85
X126.524Y-127.0
X128.27Y-107.95
X128.905Y-88.9
X131.286Y-127.0
X133.032Y-69.85
X133.667Y-127.0
X137.795Y-88.9
X138.43Y-107.95
X143.192Y-69.85
X147.32Y-107.95
X147.955Y-88.9
X152.082Y-69.85
X156.845Y-88.9
X157.48Y-107.95
X162.243Y-69.85
X163.989Y-127.0
X166.37Y-107.95
X167.005Y-88.9
X168.751Y-127.0
X171.132Y-69.85
X171.132Y-127.0
X174.149Y-127.0
X175.895Y-88.9
X176.53Y-107.95
X178.911Y-127.0
X181.292Y-69.85
X181.292Y-127.0
X185.42Y-107.95
X186.055Y-88.9
X190.183Y-69.85
X194.945Y-88.9
X195.58Y-107.95
X199.707Y-127.0
X200.343Y-69.85
X202.089Y-127.0
X204.47Y-107.95
X205.105Y-88.9
X209.232Y-69.85
X209.867Y-127.0
X212.249Y-127.0
X213.995Y-88.9
X214.63Y-107.95
X218.757Y-127.0
X219.392Y-69.85
X221.139Y-127.0
X223.52Y-107.95
X223.52Y-127.0
X224.155Y-88.9
X228.282Y-69.85
X228.917Y-127.0
X231.299Y-127.0
X233.68Y-107.95
X233.68Y-127.0
X238.442Y-69.85
X240.189Y-88.9
X242.57Y-127.0
X244.951Y-107.95
X244.951Y-127.0
X247.332Y-69.85
X250.349Y-88.9
X252.73Y-127.0
X255.111Y-107.95
X255.111Y-127.0
X257.493Y-69.85
T3
X109.537Y-133.985
X109.537Y-133.985
X114.3Y-133.985
X133.35Y-133.985
X138.112Y-133.985
X147.637Y-133.985
X157.162Y-133.985
X161.925Y-133.985
X164.306Y-133.985
X180.975Y-133.985
X185.737Y-133.985
X188.119Y-133.985
T4
X42.862Y-69.85
X45.244Y-88.9
X45.244Y-127.0
X47.625Y-127.0
X50.006Y-107.95
X61.912Y-69.85
X66.675Y-88.9
X66.675Y-127.0
X69.056Y-127.0
X71.438Y-127.0
X76.2Y-107.95
X80.962Y-69.85
X85.725Y-88.9
X88.106Y-127.0
X90.487Y-127.0
X95.25Y-107.95
X100.012Y-69.85
X104.775Y-88.9
X109.537Y-118.745
X109.537Y-118.745
X114.3Y-107.95
X114.3Y-118.745
X119.062Y-69.85
X121.444Y-127.0
X123.825Y-88.9
X126.206Y-127.0
X128.588Y-127.0
X133.35Y-107.95
X133.35Y-118.745
X138.112Y-69.85
X138.112Y-118.745
X142.875Y-88.9
X147.637Y-118.745
X152.4Y-107.95
X157.162Y-69.85
X157.162Y-118.745
X161.925Y-88.9
X161.925Y-118.745
X164.306Y-118.745
X169.069Y-127.0
X171.45Y-107.95
X173.831Y-127.0
X176.213Y-69.85
X176.213Y-127.0
X180.975Y-88.9
X180.975Y-118.745
X185.737Y-118.745
X188.119Y-118.745
X190.5Y-107.95
X195.262Y-69.85
X200.025Y-88.9
X204.787Y-127.0
X207.169Y-127.0
X209.55Y-107.95
X214.312Y-69.85
X219.075Y-88.9
X223.837Y-127.0
X226.219Y-127.0
X228.6Y-107.95
X228.6Y-127.0
X233.362Y-69.85
X245.269Y-88.9
X247.65Y-127.0
X250.031Y-107.95
X250.031Y-127.0
X252.412Y-69.85
T0
M30
