%TF.GenerationSoftware,KiCad,Pcbnew,(6.0.1)*%
%TF.CreationDate,2022-06-07T22:41:37+02:00*%
%TF.ProjectId,dizzy40,64697a7a-7934-4302-9e6b-696361645f70,rev?*%
%TF.SameCoordinates,Original*%
%TF.FileFunction,Legend,Top*%
%TF.FilePolarity,Positive*%
%FSLAX46Y46*%
G04 Gerber Fmt 4.6, Leading zero omitted, Abs format (unit mm)*
G04 Created by KiCad (PCBNEW (6.0.1)) date 2022-06-07 22:41:37*
%MOMM*%
%LPD*%
G01*
G04 APERTURE LIST*
%ADD10C,3.987800*%
%ADD11C,1.750000*%
%ADD12C,3.048000*%
%ADD13R,1.700000X1.700000*%
%ADD14O,1.700000X1.700000*%
%ADD15C,0.650000*%
%ADD16O,1.000000X2.100000*%
%ADD17O,1.000000X1.600000*%
G04 APERTURE END LIST*
%LPC*%
D10*
%TO.C,MX26*%
X114300000Y-107950000D03*
D11*
X119380000Y-107950000D03*
X109220000Y-107950000D03*
%TD*%
D10*
%TO.C,MX55*%
X247650000Y-127000000D03*
D11*
X242570000Y-127000000D03*
X252730000Y-127000000D03*
%TD*%
%TO.C,MX5*%
X113982500Y-69850000D03*
X124142500Y-69850000D03*
D10*
X119062500Y-69850000D03*
%TD*%
D11*
%TO.C,MX52*%
X209867500Y-127000000D03*
X199707500Y-127000000D03*
D10*
X204787500Y-127000000D03*
%TD*%
%TO.C,MX31*%
X209550000Y-107950000D03*
D11*
X204470000Y-107950000D03*
X214630000Y-107950000D03*
%TD*%
D10*
%TO.C,MX3*%
X80962500Y-69850000D03*
D11*
X75882500Y-69850000D03*
X86042500Y-69850000D03*
%TD*%
%TO.C,MX15*%
X109855000Y-88900000D03*
X99695000Y-88900000D03*
D10*
X104775000Y-88900000D03*
%TD*%
D11*
%TO.C,MX12*%
X40163750Y-88900000D03*
X50323750Y-88900000D03*
D10*
X45243750Y-88900000D03*
%TD*%
D11*
%TO.C,MX32*%
X233680000Y-107950000D03*
D10*
X228600000Y-107950000D03*
D11*
X223520000Y-107950000D03*
%TD*%
%TO.C,MX1*%
X37782500Y-69850000D03*
D10*
X42862500Y-69850000D03*
D11*
X47942500Y-69850000D03*
%TD*%
%TO.C,MX43*%
X247332500Y-69850000D03*
X257492500Y-69850000D03*
D10*
X252412500Y-69850000D03*
%TD*%
D11*
%TO.C,MX34*%
X40163750Y-127000000D03*
X50323750Y-127000000D03*
D10*
X45243750Y-127000000D03*
%TD*%
D11*
%TO.C,MX2*%
X56832500Y-69850000D03*
D10*
X61912500Y-69850000D03*
D11*
X66992500Y-69850000D03*
%TD*%
D10*
%TO.C,MX53*%
X226218750Y-127000000D03*
D11*
X221138750Y-127000000D03*
X231298750Y-127000000D03*
%TD*%
%TO.C,MX25*%
X100330000Y-107950000D03*
D10*
X95250000Y-107950000D03*
D11*
X90170000Y-107950000D03*
%TD*%
D10*
%TO.C,MX54*%
X223837500Y-127000000D03*
D11*
X228917500Y-127000000D03*
X218757500Y-127000000D03*
%TD*%
%TO.C,MX50*%
X76517500Y-127000000D03*
D10*
X71437500Y-127000000D03*
D11*
X66357500Y-127000000D03*
%TD*%
%TO.C,MX49*%
X63976250Y-127000000D03*
D10*
X69056250Y-127000000D03*
D11*
X74136250Y-127000000D03*
%TD*%
D10*
%TO.C,MX22*%
X245268750Y-88900000D03*
D11*
X250348750Y-88900000D03*
X240188750Y-88900000D03*
%TD*%
D10*
%TO.C,MX39*%
X188118750Y-118745000D03*
D11*
X171132500Y-127000000D03*
D10*
X164306250Y-118745000D03*
D12*
X188118750Y-133985000D03*
D11*
X181292500Y-127000000D03*
D10*
X176212500Y-127000000D03*
D12*
X164306250Y-133985000D03*
%TD*%
D10*
%TO.C,MX19*%
X180975000Y-88900000D03*
D11*
X186055000Y-88900000D03*
X175895000Y-88900000D03*
%TD*%
%TO.C,MX7*%
X162242500Y-69850000D03*
D10*
X157162500Y-69850000D03*
D11*
X152082500Y-69850000D03*
%TD*%
%TO.C,MX20*%
X194945000Y-88900000D03*
X205105000Y-88900000D03*
D10*
X200025000Y-88900000D03*
%TD*%
D11*
%TO.C,MX48*%
X42545000Y-127000000D03*
D10*
X47625000Y-127000000D03*
D11*
X52705000Y-127000000D03*
%TD*%
%TO.C,MX18*%
X156845000Y-88900000D03*
X167005000Y-88900000D03*
D10*
X161925000Y-88900000D03*
%TD*%
D11*
%TO.C,MX17*%
X137795000Y-88900000D03*
D10*
X142875000Y-88900000D03*
D11*
X147955000Y-88900000D03*
%TD*%
D10*
%TO.C,MX40*%
X207168750Y-127000000D03*
D11*
X212248750Y-127000000D03*
X202088750Y-127000000D03*
%TD*%
%TO.C,MX36*%
X83026250Y-127000000D03*
D10*
X88106250Y-127000000D03*
D11*
X93186250Y-127000000D03*
%TD*%
%TO.C,MX51*%
X85407500Y-127000000D03*
D10*
X90487500Y-127000000D03*
D11*
X95567500Y-127000000D03*
%TD*%
%TO.C,MX27*%
X128270000Y-107950000D03*
D10*
X133350000Y-107950000D03*
D11*
X138430000Y-107950000D03*
%TD*%
%TO.C,MX41*%
X223520000Y-127000000D03*
D10*
X228600000Y-127000000D03*
D11*
X233680000Y-127000000D03*
%TD*%
D12*
%TO.C,MX37*%
X147637500Y-133985000D03*
D10*
X128587500Y-127000000D03*
X109537500Y-118745000D03*
D11*
X133667500Y-127000000D03*
D10*
X147637500Y-118745000D03*
D12*
X109537500Y-133985000D03*
D11*
X123507500Y-127000000D03*
%TD*%
D10*
%TO.C,MX46*%
X121443750Y-127000000D03*
D11*
X116363750Y-127000000D03*
D12*
X133350000Y-133985000D03*
D11*
X126523750Y-127000000D03*
D12*
X109537500Y-133985000D03*
D10*
X133350000Y-118745000D03*
X109537500Y-118745000D03*
%TD*%
D11*
%TO.C,MX14*%
X80645000Y-88900000D03*
D10*
X85725000Y-88900000D03*
D11*
X90805000Y-88900000D03*
%TD*%
%TO.C,MX10*%
X219392500Y-69850000D03*
X209232500Y-69850000D03*
D10*
X214312500Y-69850000D03*
%TD*%
%TO.C,MX4*%
X100012500Y-69850000D03*
D11*
X94932500Y-69850000D03*
X105092500Y-69850000D03*
%TD*%
D10*
%TO.C,MX45*%
X161925000Y-118745000D03*
D11*
X168751250Y-127000000D03*
X178911250Y-127000000D03*
D10*
X173831250Y-127000000D03*
D12*
X185737500Y-133985000D03*
X161925000Y-133985000D03*
D10*
X185737500Y-118745000D03*
%TD*%
%TO.C,MX33*%
X250031250Y-107950000D03*
D11*
X255111250Y-107950000D03*
X244951250Y-107950000D03*
%TD*%
%TO.C,MX21*%
X213995000Y-88900000D03*
X224155000Y-88900000D03*
D10*
X219075000Y-88900000D03*
%TD*%
%TO.C,MX6*%
X138112500Y-69850000D03*
D11*
X133032500Y-69850000D03*
X143192500Y-69850000D03*
%TD*%
D10*
%TO.C,MX23*%
X50006250Y-107950000D03*
D11*
X44926250Y-107950000D03*
X55086250Y-107950000D03*
%TD*%
%TO.C,MX28*%
X147320000Y-107950000D03*
X157480000Y-107950000D03*
D10*
X152400000Y-107950000D03*
%TD*%
%TO.C,MX47*%
X157162500Y-118745000D03*
D12*
X180975000Y-133985000D03*
D11*
X174148750Y-127000000D03*
D10*
X169068750Y-127000000D03*
D11*
X163988750Y-127000000D03*
D12*
X157162500Y-133985000D03*
D10*
X180975000Y-118745000D03*
%TD*%
D11*
%TO.C,MX29*%
X176530000Y-107950000D03*
X166370000Y-107950000D03*
D10*
X171450000Y-107950000D03*
%TD*%
D11*
%TO.C,MX30*%
X195580000Y-107950000D03*
X185420000Y-107950000D03*
D10*
X190500000Y-107950000D03*
%TD*%
%TO.C,MX9*%
X195262500Y-69850000D03*
D11*
X200342500Y-69850000D03*
X190182500Y-69850000D03*
%TD*%
D10*
%TO.C,MX44*%
X126206250Y-127000000D03*
D12*
X138112500Y-133985000D03*
D11*
X131286250Y-127000000D03*
D10*
X138112500Y-118745000D03*
X114300000Y-118745000D03*
D11*
X121126250Y-127000000D03*
D12*
X114300000Y-133985000D03*
%TD*%
D11*
%TO.C,MX16*%
X118745000Y-88900000D03*
X128905000Y-88900000D03*
D10*
X123825000Y-88900000D03*
%TD*%
D11*
%TO.C,MX24*%
X71120000Y-107950000D03*
X81280000Y-107950000D03*
D10*
X76200000Y-107950000D03*
%TD*%
D11*
%TO.C,MX35*%
X61595000Y-127000000D03*
X71755000Y-127000000D03*
D10*
X66675000Y-127000000D03*
%TD*%
D11*
%TO.C,MX42*%
X255111250Y-127000000D03*
X244951250Y-127000000D03*
D10*
X250031250Y-127000000D03*
%TD*%
D11*
%TO.C,MX11*%
X228282500Y-69850000D03*
X238442500Y-69850000D03*
D10*
X233362500Y-69850000D03*
%TD*%
%TO.C,MX13*%
X66675000Y-88900000D03*
D11*
X71755000Y-88900000D03*
X61595000Y-88900000D03*
%TD*%
%TO.C,MX8*%
X171132500Y-69850000D03*
D10*
X176212500Y-69850000D03*
D11*
X181292500Y-69850000D03*
%TD*%
D13*
%TO.C,RESET*%
X36830000Y-97226200D03*
D14*
X36830000Y-99766200D03*
%TD*%
D15*
%TO.C,USB1*%
X144785600Y-62239200D03*
X150565600Y-62239200D03*
D16*
X151995600Y-62769200D03*
D17*
X151995600Y-58589200D03*
D16*
X143355600Y-62769200D03*
D17*
X143355600Y-58589200D03*
%TD*%
M02*
