M48
; DRILL file {KiCad (6.0.1)} date Tue Jun  7 22:41:39 2022
; FORMAT={-:-/ absolute / metric / decimal}
; #@! TF.CreationDate,2022-06-07T22:41:39+02:00
; #@! TF.GenerationSoftware,Kicad,Pcbnew,(6.0.1)
; #@! TF.FileFunction,Plated,1,2,PTH
FMAT,2
METRIC
; #@! TA.AperFunction,Plated,PTH,ViaDrill
T1C0.400
; #@! TA.AperFunction,Plated,PTH,ComponentDrill
T2C0.600
; #@! TA.AperFunction,Plated,PTH,ComponentDrill
T3C1.000
; #@! TA.AperFunction,Plated,PTH,ComponentDrill
T4C1.470
%
G90
G05
T1
X46.33Y-95.86
X46.33Y-96.926
X52.476Y-96.876
X54.61Y-93.624
X57.099Y-86.97
X57.116Y-110.795
X58.115Y-86.97
X58.115Y-110.795
X65.024Y-98.044
X84.709Y-98.679
X104.115Y-99.035
X123.647Y-99.517
X131.893Y-73.542
X134.366Y-92.964
X138.481Y-105.105
X140.462Y-73.533
X140.614Y-109.322
X141.376Y-108.661
X141.783Y-113.284
X141.884Y-100.178
X142.138Y-109.372
X142.85Y-113.284
X142.9Y-100.228
X142.951Y-97.028
X143.967Y-100.228
X145.085Y-100.228
X145.237Y-66.243
X146.761Y-75.641
X147.422Y-78.435
X147.422Y-79.654
X147.422Y-80.924
X149.047Y-75.641
X150.114Y-66.345
X151.105Y-91.516
X151.13Y-103.429
X152.273Y-73.533
X152.4Y-127.102
X153.264Y-79.604
X153.28Y-78.419
X154.584Y-91.084
X154.813Y-86.741
X155.6Y-110.084
X156.718Y-95.402
X156.718Y-96.469
X156.718Y-97.587
X156.718Y-98.654
X172.72Y-114.681
X198.552Y-98.311
X203.302Y-115.722
X217.145Y-97.765
X236.83Y-94.437
X239.014Y-78.842
T3
X36.83Y-97.226
X36.83Y-99.766
T4
X39.052Y-67.31
X41.434Y-86.36
X41.434Y-124.46
X43.815Y-124.46
X45.402Y-64.77
X46.196Y-105.41
X47.784Y-83.82
X47.784Y-121.92
X50.165Y-121.92
X52.546Y-102.87
X58.102Y-67.31
X62.865Y-86.36
X62.865Y-124.46
X64.453Y-64.77
X65.246Y-124.46
X67.627Y-124.46
X69.215Y-83.82
X69.215Y-121.92
X71.596Y-121.92
X72.39Y-105.41
X73.977Y-121.92
X77.153Y-67.31
X78.74Y-102.87
X81.915Y-86.36
X83.502Y-64.77
X84.296Y-124.46
X86.677Y-124.46
X88.265Y-83.82
X90.646Y-121.92
X91.44Y-105.41
X93.027Y-121.92
X96.203Y-67.31
X97.79Y-102.87
X100.965Y-86.36
X102.552Y-64.77
X107.315Y-83.82
X110.49Y-105.41
X115.252Y-67.31
X116.84Y-102.87
X117.634Y-124.46
X120.015Y-86.36
X121.602Y-64.77
X122.396Y-124.46
X123.984Y-121.92
X124.777Y-124.46
X126.365Y-83.82
X128.746Y-121.92
X129.54Y-105.41
X131.127Y-121.92
X134.302Y-67.31
X135.89Y-102.87
X139.065Y-86.36
X140.653Y-64.77
X145.415Y-83.82
X148.59Y-105.41
X153.352Y-67.31
X154.94Y-102.87
X158.115Y-86.36
X159.702Y-64.77
X164.465Y-83.82
X165.259Y-124.46
X167.64Y-105.41
X170.021Y-124.46
X171.609Y-121.92
X172.403Y-67.31
X172.403Y-124.46
X173.99Y-102.87
X176.371Y-121.92
X177.165Y-86.36
X178.752Y-64.77
X178.752Y-121.92
X183.515Y-83.82
X186.69Y-105.41
X191.452Y-67.31
X193.04Y-102.87
X196.215Y-86.36
X197.802Y-64.77
X200.977Y-124.46
X202.565Y-83.82
X203.359Y-124.46
X205.74Y-105.41
X207.327Y-121.92
X209.709Y-121.92
X210.502Y-67.31
X212.09Y-102.87
X215.265Y-86.36
X216.852Y-64.77
X220.028Y-124.46
X221.615Y-83.82
X222.409Y-124.46
X224.79Y-105.41
X224.79Y-124.46
X226.377Y-121.92
X228.759Y-121.92
X229.552Y-67.31
X231.14Y-102.87
X231.14Y-121.92
X235.903Y-64.77
X241.459Y-86.36
X243.84Y-124.46
X246.221Y-105.41
X246.221Y-124.46
X247.809Y-83.82
X248.602Y-67.31
X250.19Y-121.92
X252.571Y-102.87
X252.571Y-121.92
X254.952Y-64.77
T2
X143.356Y-58.289G85X143.356Y-58.889
G05
X143.356Y-62.219G85X143.356Y-63.319
G05
X151.996Y-58.289G85X151.996Y-58.889
G05
X151.996Y-62.219G85X151.996Y-63.319
G05
T0
M30
