%TF.GenerationSoftware,KiCad,Pcbnew,(6.0.1)*%
%TF.CreationDate,2022-06-06T15:09:24+02:00*%
%TF.ProjectId,dizzy40,64697a7a-7934-4302-9e6b-696361645f70,rev?*%
%TF.SameCoordinates,Original*%
%TF.FileFunction,Soldermask,Bot*%
%TF.FilePolarity,Negative*%
%FSLAX46Y46*%
G04 Gerber Fmt 4.6, Leading zero omitted, Abs format (unit mm)*
G04 Created by KiCad (PCBNEW (6.0.1)) date 2022-06-06 15:09:24*
%MOMM*%
%LPD*%
G01*
G04 APERTURE LIST*
G04 Aperture macros list*
%AMRoundRect*
0 Rectangle with rounded corners*
0 $1 Rounding radius*
0 $2 $3 $4 $5 $6 $7 $8 $9 X,Y pos of 4 corners*
0 Add a 4 corners polygon primitive as box body*
4,1,4,$2,$3,$4,$5,$6,$7,$8,$9,$2,$3,0*
0 Add four circle primitives for the rounded corners*
1,1,$1+$1,$2,$3*
1,1,$1+$1,$4,$5*
1,1,$1+$1,$6,$7*
1,1,$1+$1,$8,$9*
0 Add four rect primitives between the rounded corners*
20,1,$1+$1,$2,$3,$4,$5,0*
20,1,$1+$1,$4,$5,$6,$7,0*
20,1,$1+$1,$6,$7,$8,$9,0*
20,1,$1+$1,$8,$9,$2,$3,0*%
G04 Aperture macros list end*
%ADD10C,1.750000*%
%ADD11C,3.987800*%
%ADD12C,2.250000*%
%ADD13R,1.600000X0.550000*%
%ADD14R,0.550000X1.600000*%
%ADD15C,3.048000*%
%ADD16RoundRect,0.250000X-0.250000X-0.475000X0.250000X-0.475000X0.250000X0.475000X-0.250000X0.475000X0*%
%ADD17RoundRect,0.250000X-0.262500X-0.450000X0.262500X-0.450000X0.262500X0.450000X-0.262500X0.450000X0*%
%ADD18R,0.800000X0.900000*%
%ADD19R,0.700000X0.700000*%
%ADD20RoundRect,0.250000X0.450000X-0.262500X0.450000X0.262500X-0.450000X0.262500X-0.450000X-0.262500X0*%
%ADD21RoundRect,0.150000X0.512500X0.150000X-0.512500X0.150000X-0.512500X-0.150000X0.512500X-0.150000X0*%
%ADD22R,1.200000X1.400000*%
%ADD23RoundRect,0.250000X-0.475000X0.250000X-0.475000X-0.250000X0.475000X-0.250000X0.475000X0.250000X0*%
%ADD24RoundRect,0.250000X0.375000X0.625000X-0.375000X0.625000X-0.375000X-0.625000X0.375000X-0.625000X0*%
%ADD25RoundRect,0.250000X-0.450000X0.262500X-0.450000X-0.262500X0.450000X-0.262500X0.450000X0.262500X0*%
%ADD26RoundRect,0.250000X0.250000X0.475000X-0.250000X0.475000X-0.250000X-0.475000X0.250000X-0.475000X0*%
%ADD27RoundRect,0.250000X0.262500X0.450000X-0.262500X0.450000X-0.262500X-0.450000X0.262500X-0.450000X0*%
%ADD28R,1.700000X1.700000*%
%ADD29O,1.700000X1.700000*%
%ADD30C,0.650000*%
%ADD31R,0.600000X1.450000*%
%ADD32R,0.300000X1.450000*%
%ADD33O,1.000000X2.100000*%
%ADD34O,1.000000X1.600000*%
G04 APERTURE END LIST*
D10*
%TO.C,MX20*%
X194945000Y-88900000D03*
X205105000Y-88900000D03*
D11*
X200025000Y-88900000D03*
D12*
X196215000Y-86360000D03*
X202565000Y-83820000D03*
%TD*%
D10*
%TO.C,MX27*%
X128270000Y-107950000D03*
D11*
X133350000Y-107950000D03*
D10*
X138430000Y-107950000D03*
D12*
X129540000Y-105410000D03*
X135890000Y-102870000D03*
%TD*%
D10*
%TO.C,MX28*%
X147320000Y-107950000D03*
X157480000Y-107950000D03*
D11*
X152400000Y-107950000D03*
D12*
X148590000Y-105410000D03*
X154940000Y-102870000D03*
%TD*%
D13*
%TO.C,U1*%
X147099292Y-95802800D03*
X147099292Y-96602800D03*
X147099292Y-97402800D03*
X147099292Y-98202800D03*
X147099292Y-99002800D03*
X147099292Y-99802800D03*
X147099292Y-100602800D03*
X147099292Y-101402800D03*
D14*
X145649292Y-102852800D03*
X144849292Y-102852800D03*
X144049292Y-102852800D03*
X143249292Y-102852800D03*
X142449292Y-102852800D03*
X141649292Y-102852800D03*
X140849292Y-102852800D03*
X140049292Y-102852800D03*
D13*
X138599292Y-101402800D03*
X138599292Y-100602800D03*
X138599292Y-99802800D03*
X138599292Y-99002800D03*
X138599292Y-98202800D03*
X138599292Y-97402800D03*
X138599292Y-96602800D03*
X138599292Y-95802800D03*
D14*
X140049292Y-94352800D03*
X140849292Y-94352800D03*
X141649292Y-94352800D03*
X142449292Y-94352800D03*
X143249292Y-94352800D03*
X144049292Y-94352800D03*
X144849292Y-94352800D03*
X145649292Y-94352800D03*
%TD*%
D10*
%TO.C,MX16*%
X118745000Y-88900000D03*
X128905000Y-88900000D03*
D11*
X123825000Y-88900000D03*
D12*
X120015000Y-86360000D03*
X126365000Y-83820000D03*
%TD*%
D11*
%TO.C,MX26*%
X114300000Y-107950000D03*
D10*
X119380000Y-107950000D03*
X109220000Y-107950000D03*
D12*
X110490000Y-105410000D03*
X116840000Y-102870000D03*
%TD*%
D11*
%TO.C,MX55*%
X247650000Y-127000000D03*
D10*
X242570000Y-127000000D03*
X252730000Y-127000000D03*
D12*
X243840000Y-124460000D03*
X250190000Y-121920000D03*
%TD*%
D10*
%TO.C,MX5*%
X113982500Y-69850000D03*
X124142500Y-69850000D03*
D11*
X119062500Y-69850000D03*
D12*
X115252500Y-67310000D03*
X121602500Y-64770000D03*
%TD*%
D10*
%TO.C,MX52*%
X209867500Y-127000000D03*
X199707500Y-127000000D03*
D11*
X204787500Y-127000000D03*
D12*
X200977500Y-124460000D03*
X207327500Y-121920000D03*
%TD*%
D11*
%TO.C,MX31*%
X209550000Y-107950000D03*
D10*
X204470000Y-107950000D03*
X214630000Y-107950000D03*
D12*
X205740000Y-105410000D03*
X212090000Y-102870000D03*
%TD*%
D11*
%TO.C,MX3*%
X80962500Y-69850000D03*
D10*
X75882500Y-69850000D03*
X86042500Y-69850000D03*
D12*
X77152500Y-67310000D03*
X83502500Y-64770000D03*
%TD*%
D10*
%TO.C,MX15*%
X109855000Y-88900000D03*
X99695000Y-88900000D03*
D11*
X104775000Y-88900000D03*
D12*
X100965000Y-86360000D03*
X107315000Y-83820000D03*
%TD*%
D10*
%TO.C,MX12*%
X40163750Y-88900000D03*
X50323750Y-88900000D03*
D11*
X45243750Y-88900000D03*
D12*
X41433750Y-86360000D03*
X47783750Y-83820000D03*
%TD*%
D10*
%TO.C,MX32*%
X233680000Y-107950000D03*
D11*
X228600000Y-107950000D03*
D10*
X223520000Y-107950000D03*
D12*
X224790000Y-105410000D03*
X231140000Y-102870000D03*
%TD*%
D10*
%TO.C,MX1*%
X37782500Y-69850000D03*
D11*
X42862500Y-69850000D03*
D10*
X47942500Y-69850000D03*
D12*
X39052500Y-67310000D03*
X45402500Y-64770000D03*
%TD*%
D10*
%TO.C,MX43*%
X247332500Y-69850000D03*
X257492500Y-69850000D03*
D11*
X252412500Y-69850000D03*
D12*
X248602500Y-67310000D03*
X254952500Y-64770000D03*
%TD*%
D10*
%TO.C,MX34*%
X40163750Y-127000000D03*
X50323750Y-127000000D03*
D11*
X45243750Y-127000000D03*
D12*
X41433750Y-124460000D03*
X47783750Y-121920000D03*
%TD*%
D10*
%TO.C,MX2*%
X56832500Y-69850000D03*
D11*
X61912500Y-69850000D03*
D10*
X66992500Y-69850000D03*
D12*
X58102500Y-67310000D03*
X64452500Y-64770000D03*
%TD*%
D11*
%TO.C,MX53*%
X226218750Y-127000000D03*
D10*
X221138750Y-127000000D03*
X231298750Y-127000000D03*
D12*
X222408750Y-124460000D03*
X228758750Y-121920000D03*
%TD*%
D10*
%TO.C,MX25*%
X100330000Y-107950000D03*
D11*
X95250000Y-107950000D03*
D10*
X90170000Y-107950000D03*
D12*
X91440000Y-105410000D03*
X97790000Y-102870000D03*
%TD*%
D11*
%TO.C,MX54*%
X223837500Y-127000000D03*
D10*
X228917500Y-127000000D03*
X218757500Y-127000000D03*
D12*
X220027500Y-124460000D03*
X226377500Y-121920000D03*
%TD*%
D10*
%TO.C,MX50*%
X76517500Y-127000000D03*
D11*
X71437500Y-127000000D03*
D10*
X66357500Y-127000000D03*
D12*
X67627500Y-124460000D03*
X73977500Y-121920000D03*
%TD*%
D10*
%TO.C,MX49*%
X63976250Y-127000000D03*
D11*
X69056250Y-127000000D03*
D10*
X74136250Y-127000000D03*
D12*
X65246250Y-124460000D03*
X71596250Y-121920000D03*
%TD*%
D11*
%TO.C,MX22*%
X245268750Y-88900000D03*
D10*
X250348750Y-88900000D03*
X240188750Y-88900000D03*
D12*
X241458750Y-86360000D03*
X247808750Y-83820000D03*
%TD*%
D11*
%TO.C,MX39*%
X188118750Y-118745000D03*
D10*
X171132500Y-127000000D03*
D11*
X164306250Y-118745000D03*
D15*
X188118750Y-133985000D03*
D10*
X181292500Y-127000000D03*
D11*
X176212500Y-127000000D03*
D15*
X164306250Y-133985000D03*
D12*
X172402500Y-124460000D03*
X178752500Y-121920000D03*
%TD*%
D11*
%TO.C,MX19*%
X180975000Y-88900000D03*
D10*
X186055000Y-88900000D03*
X175895000Y-88900000D03*
D12*
X177165000Y-86360000D03*
X183515000Y-83820000D03*
%TD*%
D10*
%TO.C,MX7*%
X162242500Y-69850000D03*
D11*
X157162500Y-69850000D03*
D10*
X152082500Y-69850000D03*
D12*
X153352500Y-67310000D03*
X159702500Y-64770000D03*
%TD*%
D10*
%TO.C,MX48*%
X42545000Y-127000000D03*
D11*
X47625000Y-127000000D03*
D10*
X52705000Y-127000000D03*
D12*
X43815000Y-124460000D03*
X50165000Y-121920000D03*
%TD*%
D10*
%TO.C,MX18*%
X156845000Y-88900000D03*
X167005000Y-88900000D03*
D11*
X161925000Y-88900000D03*
D12*
X158115000Y-86360000D03*
X164465000Y-83820000D03*
%TD*%
D10*
%TO.C,MX17*%
X137795000Y-88900000D03*
D11*
X142875000Y-88900000D03*
D10*
X147955000Y-88900000D03*
D12*
X139065000Y-86360000D03*
X145415000Y-83820000D03*
%TD*%
D11*
%TO.C,MX40*%
X207168750Y-127000000D03*
D10*
X212248750Y-127000000D03*
X202088750Y-127000000D03*
D12*
X203358750Y-124460000D03*
X209708750Y-121920000D03*
%TD*%
D10*
%TO.C,MX36*%
X83026250Y-127000000D03*
D11*
X88106250Y-127000000D03*
D10*
X93186250Y-127000000D03*
D12*
X84296250Y-124460000D03*
X90646250Y-121920000D03*
%TD*%
D10*
%TO.C,MX51*%
X85407500Y-127000000D03*
D11*
X90487500Y-127000000D03*
D10*
X95567500Y-127000000D03*
D12*
X86677500Y-124460000D03*
X93027500Y-121920000D03*
%TD*%
D10*
%TO.C,MX41*%
X223520000Y-127000000D03*
D11*
X228600000Y-127000000D03*
D10*
X233680000Y-127000000D03*
D12*
X224790000Y-124460000D03*
X231140000Y-121920000D03*
%TD*%
D15*
%TO.C,MX37*%
X147637500Y-133985000D03*
D11*
X128587500Y-127000000D03*
X109537500Y-118745000D03*
D10*
X133667500Y-127000000D03*
D11*
X147637500Y-118745000D03*
D15*
X109537500Y-133985000D03*
D10*
X123507500Y-127000000D03*
D12*
X124777500Y-124460000D03*
X131127500Y-121920000D03*
%TD*%
D11*
%TO.C,MX46*%
X121443750Y-127000000D03*
D10*
X116363750Y-127000000D03*
D15*
X133350000Y-133985000D03*
D10*
X126523750Y-127000000D03*
D15*
X109537500Y-133985000D03*
D11*
X133350000Y-118745000D03*
X109537500Y-118745000D03*
D12*
X117633750Y-124460000D03*
X123983750Y-121920000D03*
%TD*%
D10*
%TO.C,MX14*%
X80645000Y-88900000D03*
D11*
X85725000Y-88900000D03*
D10*
X90805000Y-88900000D03*
D12*
X81915000Y-86360000D03*
X88265000Y-83820000D03*
%TD*%
D10*
%TO.C,MX10*%
X219392500Y-69850000D03*
X209232500Y-69850000D03*
D11*
X214312500Y-69850000D03*
D12*
X210502500Y-67310000D03*
X216852500Y-64770000D03*
%TD*%
D11*
%TO.C,MX4*%
X100012500Y-69850000D03*
D10*
X94932500Y-69850000D03*
X105092500Y-69850000D03*
D12*
X96202500Y-67310000D03*
X102552500Y-64770000D03*
%TD*%
D11*
%TO.C,MX45*%
X161925000Y-118745000D03*
D10*
X168751250Y-127000000D03*
X178911250Y-127000000D03*
D11*
X173831250Y-127000000D03*
D15*
X185737500Y-133985000D03*
X161925000Y-133985000D03*
D11*
X185737500Y-118745000D03*
D12*
X170021250Y-124460000D03*
X176371250Y-121920000D03*
%TD*%
D11*
%TO.C,MX33*%
X250031250Y-107950000D03*
D10*
X255111250Y-107950000D03*
X244951250Y-107950000D03*
D12*
X246221250Y-105410000D03*
X252571250Y-102870000D03*
%TD*%
D10*
%TO.C,MX21*%
X213995000Y-88900000D03*
X224155000Y-88900000D03*
D11*
X219075000Y-88900000D03*
D12*
X215265000Y-86360000D03*
X221615000Y-83820000D03*
%TD*%
D11*
%TO.C,MX6*%
X138112500Y-69850000D03*
D10*
X133032500Y-69850000D03*
X143192500Y-69850000D03*
D12*
X134302500Y-67310000D03*
X140652500Y-64770000D03*
%TD*%
D11*
%TO.C,MX23*%
X50006250Y-107950000D03*
D10*
X44926250Y-107950000D03*
X55086250Y-107950000D03*
D12*
X46196250Y-105410000D03*
X52546250Y-102870000D03*
%TD*%
D11*
%TO.C,MX47*%
X157162500Y-118745000D03*
D15*
X180975000Y-133985000D03*
D10*
X174148750Y-127000000D03*
D11*
X169068750Y-127000000D03*
D10*
X163988750Y-127000000D03*
D15*
X157162500Y-133985000D03*
D11*
X180975000Y-118745000D03*
D12*
X165258750Y-124460000D03*
X171608750Y-121920000D03*
%TD*%
D10*
%TO.C,MX29*%
X176530000Y-107950000D03*
X166370000Y-107950000D03*
D11*
X171450000Y-107950000D03*
D12*
X167640000Y-105410000D03*
X173990000Y-102870000D03*
%TD*%
D10*
%TO.C,MX30*%
X195580000Y-107950000D03*
X185420000Y-107950000D03*
D11*
X190500000Y-107950000D03*
D12*
X186690000Y-105410000D03*
X193040000Y-102870000D03*
%TD*%
D11*
%TO.C,MX9*%
X195262500Y-69850000D03*
D10*
X200342500Y-69850000D03*
X190182500Y-69850000D03*
D12*
X191452500Y-67310000D03*
X197802500Y-64770000D03*
%TD*%
D11*
%TO.C,MX44*%
X126206250Y-127000000D03*
D15*
X138112500Y-133985000D03*
D10*
X131286250Y-127000000D03*
D11*
X138112500Y-118745000D03*
X114300000Y-118745000D03*
D10*
X121126250Y-127000000D03*
D15*
X114300000Y-133985000D03*
D12*
X122396250Y-124460000D03*
X128746250Y-121920000D03*
%TD*%
D10*
%TO.C,MX24*%
X71120000Y-107950000D03*
X81280000Y-107950000D03*
D11*
X76200000Y-107950000D03*
D12*
X72390000Y-105410000D03*
X78740000Y-102870000D03*
%TD*%
D10*
%TO.C,MX35*%
X61595000Y-127000000D03*
X71755000Y-127000000D03*
D11*
X66675000Y-127000000D03*
D12*
X62865000Y-124460000D03*
X69215000Y-121920000D03*
%TD*%
D10*
%TO.C,MX42*%
X255111250Y-127000000D03*
X244951250Y-127000000D03*
D11*
X250031250Y-127000000D03*
D12*
X246221250Y-124460000D03*
X252571250Y-121920000D03*
%TD*%
D10*
%TO.C,MX11*%
X228282500Y-69850000D03*
X238442500Y-69850000D03*
D11*
X233362500Y-69850000D03*
D12*
X229552500Y-67310000D03*
X235902500Y-64770000D03*
%TD*%
D11*
%TO.C,MX13*%
X66675000Y-88900000D03*
D10*
X71755000Y-88900000D03*
X61595000Y-88900000D03*
D12*
X62865000Y-86360000D03*
X69215000Y-83820000D03*
%TD*%
D10*
%TO.C,MX8*%
X171132500Y-69850000D03*
D11*
X176212500Y-69850000D03*
D10*
X181292500Y-69850000D03*
D12*
X172402500Y-67310000D03*
X178752500Y-64770000D03*
%TD*%
D16*
%TO.C,C2*%
X150080186Y-101825932D03*
X151980186Y-101825932D03*
%TD*%
D17*
%TO.C,R1*%
X136755500Y-61214000D03*
X138580500Y-61214000D03*
%TD*%
D18*
%TO.C,D6*%
X223774000Y-73517000D03*
X222824000Y-71517000D03*
X224724000Y-71517000D03*
%TD*%
D19*
%TO.C,RGB3*%
X123597000Y-79925000D03*
X121767000Y-79925000D03*
X121767000Y-78825000D03*
X123597000Y-78825000D03*
%TD*%
D18*
%TO.C,D19*%
X57150000Y-130794000D03*
X56200000Y-128794000D03*
X58100000Y-128794000D03*
%TD*%
%TO.C,D2*%
X90551000Y-73517000D03*
X89601000Y-71517000D03*
X91501000Y-71517000D03*
%TD*%
D16*
%TO.C,C3*%
X150134069Y-93007319D03*
X152034069Y-93007319D03*
%TD*%
D18*
%TO.C,D18*%
X219075000Y-111871000D03*
X218125000Y-109871000D03*
X220025000Y-109871000D03*
%TD*%
%TO.C,D11*%
X190500000Y-92821000D03*
X189550000Y-90821000D03*
X191450000Y-90821000D03*
%TD*%
%TO.C,D1*%
X52425600Y-73491600D03*
X51475600Y-71491600D03*
X53375600Y-71491600D03*
%TD*%
D20*
%TO.C,R5*%
X144119600Y-107643300D03*
X144119600Y-105818300D03*
%TD*%
D18*
%TO.C,D9*%
X114300000Y-92821000D03*
X113350000Y-90821000D03*
X115250000Y-90821000D03*
%TD*%
%TO.C,D23*%
X215646000Y-130794000D03*
X214696000Y-128794000D03*
X216596000Y-128794000D03*
%TD*%
%TO.C,D14*%
X64008000Y-111871000D03*
X63058000Y-109871000D03*
X64958000Y-109871000D03*
%TD*%
D19*
%TO.C,RGB7*%
X173329000Y-115782000D03*
X175159000Y-115782000D03*
X175159000Y-116882000D03*
X173329000Y-116882000D03*
%TD*%
%TO.C,RGB6*%
X123037000Y-115782000D03*
X124867000Y-115782000D03*
X124867000Y-116882000D03*
X123037000Y-116882000D03*
%TD*%
D18*
%TO.C,D15*%
X104775000Y-111871000D03*
X103825000Y-109871000D03*
X105725000Y-109871000D03*
%TD*%
%TO.C,D10*%
X171450000Y-92846400D03*
X170500000Y-90846400D03*
X172400000Y-90846400D03*
%TD*%
D21*
%TO.C,U2*%
X148762300Y-68747600D03*
X148762300Y-69697600D03*
X148762300Y-70647600D03*
X146487300Y-70647600D03*
X146487300Y-69697600D03*
X146487300Y-68747600D03*
%TD*%
D19*
%TO.C,RGB1*%
X237389000Y-79925000D03*
X235559000Y-79925000D03*
X235559000Y-78825000D03*
X237389000Y-78825000D03*
%TD*%
D18*
%TO.C,D24*%
X238125000Y-130794000D03*
X237175000Y-128794000D03*
X239075000Y-128794000D03*
%TD*%
%TO.C,D8*%
X76200000Y-92821000D03*
X75250000Y-90821000D03*
X77150000Y-90821000D03*
%TD*%
D22*
%TO.C,X1*%
X151904004Y-95207644D03*
X151904004Y-97407644D03*
X150204004Y-97407644D03*
X150204004Y-95207644D03*
%TD*%
D19*
%TO.C,RGB4*%
X59970000Y-79925000D03*
X58140000Y-79925000D03*
X58140000Y-78825000D03*
X59970000Y-78825000D03*
%TD*%
D23*
%TO.C,C4*%
X154076400Y-95417600D03*
X154076400Y-97317600D03*
%TD*%
D18*
%TO.C,D17*%
X180975000Y-111871000D03*
X180025000Y-109871000D03*
X181925000Y-109871000D03*
%TD*%
D19*
%TO.C,RGB8*%
X235559000Y-116925000D03*
X237389000Y-116925000D03*
X237389000Y-118025000D03*
X235559000Y-118025000D03*
%TD*%
D18*
%TO.C,D16*%
X161925000Y-111871000D03*
X160975000Y-109871000D03*
X162875000Y-109871000D03*
%TD*%
%TO.C,D3*%
X128574800Y-73542400D03*
X127624800Y-71542400D03*
X129524800Y-71542400D03*
%TD*%
D20*
%TO.C,R6*%
X40640000Y-99362900D03*
X40640000Y-97537900D03*
%TD*%
D19*
%TO.C,RGB2*%
X179985000Y-79925000D03*
X178155000Y-79925000D03*
X178155000Y-78825000D03*
X179985000Y-78825000D03*
%TD*%
D24*
%TO.C,F1*%
X149024800Y-73507600D03*
X146224800Y-73507600D03*
%TD*%
D18*
%TO.C,D12*%
X232511600Y-92846400D03*
X231561600Y-90846400D03*
X233461600Y-90846400D03*
%TD*%
D25*
%TO.C,R3*%
X151333200Y-81129500D03*
X151333200Y-82954500D03*
%TD*%
D26*
%TO.C,C6*%
X139634000Y-91694000D03*
X137734000Y-91694000D03*
%TD*%
D16*
%TO.C,C5*%
X150116108Y-99634747D03*
X152016108Y-99634747D03*
%TD*%
%TO.C,C1*%
X155310800Y-82042000D03*
X157210800Y-82042000D03*
%TD*%
D25*
%TO.C,R4*%
X153466800Y-81129500D03*
X153466800Y-82954500D03*
%TD*%
D18*
%TO.C,D20*%
X80010000Y-130794000D03*
X79060000Y-128794000D03*
X80960000Y-128794000D03*
%TD*%
D27*
%TO.C,R2*%
X158189300Y-61214000D03*
X156364300Y-61214000D03*
%TD*%
D19*
%TO.C,RGB5*%
X58140000Y-116925000D03*
X59970000Y-116925000D03*
X59970000Y-118025000D03*
X58140000Y-118025000D03*
%TD*%
D18*
%TO.C,D4*%
X166725600Y-73542400D03*
X165775600Y-71542400D03*
X167675600Y-71542400D03*
%TD*%
D28*
%TO.C,RESET*%
X36830000Y-97226200D03*
D29*
X36830000Y-99766200D03*
%TD*%
D18*
%TO.C,D5*%
X204774800Y-73517000D03*
X203824800Y-71517000D03*
X205724800Y-71517000D03*
%TD*%
D30*
%TO.C,USB1*%
X144785600Y-62239200D03*
X150565600Y-62239200D03*
D31*
X144425600Y-63684200D03*
X145225600Y-63684200D03*
D32*
X146425600Y-63684200D03*
X147425600Y-63684200D03*
X147925600Y-63684200D03*
X148925600Y-63684200D03*
D31*
X150125600Y-63684200D03*
X150925600Y-63684200D03*
X150925600Y-63684200D03*
X150125600Y-63684200D03*
D32*
X149425600Y-63684200D03*
X148425600Y-63684200D03*
X146925600Y-63684200D03*
X145925600Y-63684200D03*
D31*
X145225600Y-63684200D03*
X144425600Y-63684200D03*
D33*
X151995600Y-62769200D03*
D34*
X151995600Y-58589200D03*
D33*
X143355600Y-62769200D03*
D34*
X143355600Y-58589200D03*
%TD*%
D18*
%TO.C,D22*%
X152400000Y-130794000D03*
X151450000Y-128794000D03*
X153350000Y-128794000D03*
%TD*%
%TO.C,D25*%
X242951000Y-73491600D03*
X242001000Y-71491600D03*
X243901000Y-71491600D03*
%TD*%
M02*
